<svg data-logo="logo" xmlns="http://www.w3.org/2000/svg" viewBox="0 0 290 43">
    <g style="opacity: 1;" id="logogram" transform="translate(0, 1) rotate(0)">
        <path
            d="M40.1509 20.27C40.1509 31.3157 31.1966 40.27 20.1509 40.27C9.10524 40.27 0.150879 31.3157 0.150879 20.27C0.150879 9.2243 9.10524 0.269989 20.1509 0.269989C31.1966 0.269989 40.1509 9.2243 40.1509 20.27Z"
            fill="#68DBFF"></path>
        <path
            d="M63.1509 20.27C63.1509 31.3157 54.1964 40.27 43.1508 40.27C32.1052 40.27 23.1509 31.3157 23.1509 20.27C23.1509 9.2243 32.1052 0.269989 43.1508 0.269989C54.1964 0.269989 63.1509 9.2243 63.1509 20.27Z"
            fill="#FFAF75"></path>
        <path fill-rule="evenodd" clip-rule="evenodd"
            d="M31.6509 36.6351C36.792 33.0157 40.1509 27.0351 40.1509 20.27C40.1509 13.5049 36.792 7.52425 31.6509 3.90488C26.5098 7.52425 23.1509 13.5049 23.1509 20.27C23.1509 27.0351 26.5098 33.0157 31.6509 36.6351Z"
            fill="#C86814"></path>
    </g>
    <g style="opacity: 1;" id="logotype" transform="translate(70, 8.5)">
        <path fill="#ffa200"
            d="M19.43 26.34L19.43 26.34Q16.05 26.34 13.37 24.80Q10.70 23.27 9.15 20.34Q7.61 17.42 7.61 13.29L7.61 13.29Q7.61 9.13 9.16 6.20Q10.72 3.27 13.40 1.73Q16.08 0.19 19.43 0.19L19.43 0.19Q21.60 0.19 23.47 0.80Q25.35 1.41 26.80 2.57Q28.25 3.73 29.17 5.42Q30.10 7.10 30.39 9.23L30.39 9.23L25.11 9.23Q24.94 8.19 24.45 7.38Q23.96 6.57 23.24 6.00Q22.51 5.42 21.57 5.12Q20.63 4.83 19.54 4.83L19.54 4.83Q17.55 4.83 16.05 5.82Q14.54 6.81 13.72 8.70Q12.90 10.58 12.90 13.29L12.90 13.29Q12.90 16.04 13.74 17.92Q14.58 19.80 16.07 20.75Q17.55 21.71 19.52 21.71L19.52 21.71Q20.61 21.71 21.54 21.41Q22.47 21.11 23.22 20.54Q23.96 19.97 24.45 19.15Q24.94 18.33 25.12 17.30L25.12 17.30L30.40 17.30Q30.20 19.06 29.35 20.69Q28.51 22.31 27.11 23.59Q25.70 24.87 23.77 25.61Q21.84 26.34 19.43 26.34ZM36.93 14.94L36.93 14.94L36.93 26L31.80 26L31.80 0.54L36.83 0.54L36.83 11.66L36.42 11.66Q37.17 9.27 38.70 7.96Q40.23 6.65 42.66 6.65L42.66 6.65Q44.64 6.65 46.12 7.52Q47.59 8.38 48.41 10.00Q49.22 11.61 49.22 13.85L49.22 13.85L49.22 26L44.09 26L44.09 14.74Q44.09 12.96 43.18 11.95Q42.26 10.94 40.64 10.94L40.64 10.94Q39.56 10.94 38.72 11.41Q37.87 11.88 37.40 12.77Q36.93 13.66 36.93 14.94ZM59.95 26.38L59.95 26.38Q57.03 26.38 54.91 25.18Q52.79 23.98 51.65 21.78Q50.51 19.57 50.51 16.55L50.51 16.55Q50.51 13.59 51.64 11.37Q52.77 9.15 54.84 7.90Q56.91 6.65 59.69 6.65L59.69 6.65Q61.57 6.65 63.20 7.25Q64.82 7.85 66.05 9.06Q67.28 10.26 67.97 12.07Q68.66 13.88 68.66 16.34L68.66 16.34L68.66 17.78L52.62 17.78L52.62 14.57L66.15 14.57L63.76 15.42Q63.76 13.93 63.31 12.83Q62.85 11.73 61.96 11.12Q61.06 10.52 59.73 10.52L59.73 10.52Q58.41 10.52 57.48 11.13Q56.55 11.75 56.07 12.80Q55.59 13.85 55.59 15.20L55.59 15.20L55.59 17.47Q55.59 19.13 56.15 20.26Q56.70 21.39 57.70 21.95Q58.70 22.51 60.03 22.51L60.03 22.51Q60.94 22.51 61.67 22.26Q62.41 22.00 62.93 21.50Q63.45 20.99 63.73 20.26L63.73 20.26L68.37 21.13Q67.91 22.70 66.77 23.89Q65.62 25.08 63.90 25.73Q62.19 26.38 59.95 26.38ZM78.44 26.38L78.44 26.38Q75.55 26.38 73.46 25.14Q71.36 23.90 70.23 21.68Q69.09 19.47 69.09 16.53L69.09 16.53Q69.09 13.56 70.23 11.35Q71.36 9.13 73.46 7.89Q75.55 6.65 78.44 6.65L78.44 6.65Q80.13 6.65 81.57 7.10Q83.00 7.54 84.11 8.36Q85.22 9.18 85.94 10.36Q86.66 11.54 86.93 13.01L86.93 13.01L82.16 13.90Q82.01 13.15 81.68 12.56Q81.36 11.97 80.90 11.55Q80.44 11.13 79.83 10.91Q79.22 10.69 78.49 10.69L78.49 10.69Q77.12 10.69 76.19 11.42Q75.26 12.16 74.79 13.47Q74.32 14.79 74.32 16.52L74.32 16.52Q74.32 18.22 74.79 19.53Q75.26 20.84 76.19 21.59Q77.12 22.34 78.49 22.34L78.49 22.34Q79.22 22.34 79.84 22.11Q80.45 21.88 80.93 21.45Q81.41 21.01 81.74 20.39Q82.06 19.78 82.20 19.01L82.20 19.01L86.97 19.88Q86.69 21.40 85.97 22.59Q85.26 23.78 84.15 24.63Q83.03 25.49 81.59 25.93Q80.15 26.38 78.44 26.38ZM96.35 16.48L92.86 20.41L92.86 14.24L93.63 14.24L99.88 6.89L105.81 6.89L97.56 16.48L96.35 16.48ZM93.34 26L88.21 26L88.21 0.54L93.34 0.54L93.34 26ZM106.17 26L100.14 26L94.40 17.63L97.83 13.99L106.17 26ZM114.78 26.38L114.78 26.38Q111.91 26.38 109.81 25.14Q107.71 23.90 106.57 21.68Q105.44 19.47 105.44 16.53L105.44 16.53Q105.44 13.56 106.57 11.35Q107.71 9.13 109.81 7.89Q111.91 6.65 114.78 6.65L114.78 6.65Q117.67 6.65 119.77 7.89Q121.86 9.13 123.00 11.35Q124.13 13.56 124.13 16.53L124.13 16.53Q124.13 19.47 123.00 21.68Q121.86 23.90 119.77 25.14Q117.67 26.38 114.78 26.38ZM114.78 22.34L114.78 22.34Q116.15 22.34 117.07 21.58Q118.00 20.82 118.46 19.50Q118.92 18.17 118.92 16.52L118.92 16.52Q118.92 14.82 118.46 13.51Q118.00 12.19 117.07 11.44Q116.15 10.69 114.78 10.69L114.78 10.69Q113.42 10.69 112.50 11.44Q111.59 12.19 111.13 13.51Q110.67 14.82 110.67 16.52L110.67 16.52Q110.67 18.17 111.13 19.50Q111.59 20.82 112.50 21.58Q113.42 22.34 114.78 22.34ZM132.01 26.24L132.01 26.24Q130.03 26.24 128.54 25.38Q127.05 24.51 126.24 22.90Q125.43 21.28 125.43 19.04L125.43 19.04L125.43 6.89L130.56 6.89L130.56 18.16Q130.56 19.93 131.48 20.94Q132.40 21.95 134.01 21.95L134.01 21.95Q135.10 21.95 135.94 21.48Q136.78 21.01 137.25 20.11Q137.72 19.22 137.72 17.95L137.72 17.95L137.72 6.89L142.84 6.89L142.84 26L138.01 26L137.94 21.23L138.23 21.23Q137.48 23.64 135.93 24.94Q134.38 26.24 132.01 26.24ZM143.10 6.89L154.43 6.89L154.43 10.81L143.10 10.81L143.10 6.89ZM145.73 20.86L145.73 2.35L150.86 2.35L150.86 20.41Q150.86 21.32 151.26 21.75Q151.66 22.19 152.60 22.19L152.60 22.19Q152.89 22.19 153.42 22.11Q153.95 22.04 154.22 21.97L154.22 21.97L154.96 25.81Q154.10 26.07 153.26 26.17Q152.41 26.27 151.64 26.27L151.64 26.27Q148.77 26.27 147.25 24.87Q145.73 23.47 145.73 20.86L145.73 20.86ZM160.82 26L155.61 26L155.61 0.54L165.53 0.54Q168.44 0.54 170.47 1.64Q172.51 2.74 173.58 4.68Q174.64 6.62 174.64 9.13L174.64 9.13Q174.64 11.66 173.56 13.58Q172.47 15.51 170.41 16.59Q168.35 17.68 165.41 17.68L165.41 17.68L159.02 17.68L159.02 13.47L164.58 13.47Q166.18 13.47 167.22 12.92Q168.25 12.36 168.76 11.39Q169.26 10.41 169.26 9.13L169.26 9.13Q169.26 7.85 168.76 6.88Q168.25 5.90 167.21 5.37Q166.17 4.84 164.56 4.84L164.56 4.84L160.82 4.84L160.82 26ZM175.89 0.54L181.02 0.54L181.02 26L175.89 26L175.89 0.54ZM189.68 26.24L189.68 26.24Q187.70 26.24 186.21 25.38Q184.72 24.51 183.91 22.90Q183.10 21.28 183.10 19.04L183.10 19.04L183.10 6.89L188.23 6.89L188.23 18.16Q188.23 19.93 189.15 20.94Q190.07 21.95 191.68 21.95L191.68 21.95Q192.77 21.95 193.61 21.48Q194.45 21.01 194.92 20.11Q195.39 19.22 195.39 17.95L195.39 17.95L195.39 6.89L200.51 6.89L200.51 26L195.68 26L195.61 21.23L195.90 21.23Q195.15 23.64 193.60 24.94Q192.05 26.24 189.68 26.24ZM210.20 26.38L210.20 26.38Q207.89 26.38 206.12 25.72Q204.34 25.06 203.21 23.80Q202.08 22.55 201.76 20.77L201.76 20.77L206.53 19.95Q206.90 21.28 207.84 21.95Q208.78 22.62 210.35 22.62L210.35 22.62Q211.81 22.62 212.66 22.06Q213.52 21.51 213.52 20.65L213.52 20.65Q213.52 19.90 212.91 19.42Q212.30 18.94 211.06 18.69L211.06 18.69L207.76 18.00Q204.99 17.44 203.62 16.08Q202.25 14.72 202.25 12.58L202.25 12.58Q202.25 10.74 203.26 9.41Q204.27 8.09 206.07 7.37Q207.86 6.65 210.29 6.65L210.29 6.65Q212.54 6.65 214.20 7.28Q215.86 7.90 216.88 9.05Q217.91 10.19 218.25 11.75L218.25 11.75L213.70 12.55Q213.41 11.58 212.59 10.95Q211.76 10.33 210.35 10.33L210.35 10.33Q209.09 10.33 208.24 10.86Q207.38 11.39 207.38 12.26L207.38 12.26Q207.38 12.99 207.94 13.49Q208.49 13.99 209.84 14.26L209.84 14.26L213.28 14.94Q216.05 15.51 217.40 16.78Q218.75 18.05 218.75 20.10L218.75 20.10Q218.75 21.98 217.65 23.39Q216.56 24.80 214.64 25.59Q212.71 26.38 210.20 26.38Z"></path>
    </g>

</svg>